<svg version="1.2" xmlns="http://www.w3.org/2000/svg" viewBox="0 0 256 256" width="256" height="256">
	<title>Новый проект</title>
	<style>
		.s0 { fill: #0057b8 } 
		.s1 { fill: #ffffff } 
	</style>
	<g id="Background">
		<path id="Path 0" class="s0" d="m170.9 2.3c-0.8 1.5-1 7.8-0.8 19.7 0.4 15.8 0.6 17.9 2.7 21.8 1.2 2.3 3.4 5 4.9 6.1 1.6 1 4.6 2.4 6.8 3 2.2 0.6 11.1 1.1 19.7 1.1 8.7 0 16.7-0.5 17.8-1 1.5-0.7 2-2 2-4.8 0-3.5-1.2-4.9-22.3-25.9-21-21-22.4-22.3-25.9-22.3-2.9 0-4 0.5-4.9 2.3zm-120.4 11.6c-3.6 1.8-7.7 4.8-10.3 7.8-2.4 2.6-5.2 7.2-6.3 10.1-1.8 5-1.9 8.2-1.6 103l0.2 97.7c3.9 7.7 6.6 11.6 8.6 13.5 1.9 1.9 5.4 5 7.7 6.7l4.2 3.3h150c8.9-7.1 12.3-10.2 13.3-11.4 1-1.1 3-4.4 4.5-7.1l2.7-5c0.5-145.8 0.4-157.3-0.9-159-1.4-1.9-2.9-2-29.8-2.5-23.5-0.4-28.8-0.8-31.3-2.1-1.6-0.9-4.5-3.3-6.2-5.3-1.8-2-3.8-4.8-4.5-6.4-0.7-1.6-1.3-10.7-1.6-23.2-0.3-13.5-0.8-20.9-1.5-21.8-1-1-10.6-1.3-46.2-1.2h-45.1z"/>
		<path id="Path 1" fill-rule="evenodd" class="s1" d="m0 0h172l-1.1 2.3c-0.8 1.4-1 8.1-0.8 19.7 0.4 15.8 0.6 17.9 2.7 21.8 1.2 2.3 3.4 5 5 6.1 1.5 1 4.5 2.4 6.7 3 2.2 0.6 11.1 1.1 19.8 1.1 8.6 0 16.6-0.5 17.7-1 1.5-0.7 2-2 2-4.8 0-3.5-1.2-4.9-44.5-48.2h76.5v256h-25.5c-16.3 0-25.5-0.4-25.5-1 0-0.6 1.9-2.4 4.3-4.2 2.3-1.7 5.2-4.3 6.5-5.7 1.3-1.4 3.5-4.8 7.7-12.6l0.3-78.5c0.2-67.3 0.1-78.8-1.2-80.5-1.4-1.9-2.9-2-29.8-2.5-23.5-0.4-28.8-0.8-31.3-2.1-1.7-0.9-4.5-3.3-6.2-5.3-1.8-2-3.8-4.8-4.5-6.3-0.7-1.7-1.3-10.8-1.6-23.3-0.3-13.5-0.8-20.9-1.5-21.8-1-1-10.6-1.3-91.2-1.2l-6 2.9c-3.6 1.7-7.7 4.8-10.3 7.8-2.4 2.6-5.2 7.2-6.3 10.1-1.8 5-1.9 8.5-1.9 101.2 0 86 0.2 96.5 1.6 100.8 0.9 2.6 2.9 6.5 4.4 8.7 1.5 2.2 5 5.7 7.8 7.8 2.9 2 5.2 4.1 5.2 4.7 0 0.6-9.2 1-51 1zm135 98c2.6 0 4.2 0.7 6.1 2.7 1.5 1.6 3.3 3.9 4 5.3 1 1.7 1.4 5.8 1.3 13q-0.1 10.5-1.8 15c-0.9 2.5-1.6 5.3-1.6 6.3 0 0.9 0.8 2.1 1.8 2.6 1 0.6 7.8 0.5 17.7-0.2 12.3-0.9 17-0.8 20.3 0.1 2.9 0.8 4.8 2.2 6.3 4.5 1.5 2.3 1.9 4.4 1.6 7.7-0.2 2.5-1.9 8.3-3.8 13-1.9 4.7-5.3 11.9-7.7 16-2.3 4.1-6.3 10-8.7 13-2.5 3-6.7 7.2-9.3 9.2-2.6 2.1-6.7 4.5-9.2 5.3-3.6 1.3-8.2 1.5-41.5 0.9l-12.5-4.1c-6.9-2.3-16.1-4.6-20.5-5.3-4.4-0.6-8.6-1.6-9.4-2.3-0.7-0.7-2-2.4-2.7-3.9-1-2.1-1.4-7.3-1.4-19.3 0-12.3 0.4-17.3 1.5-19.7 0.8-1.8 2.5-3.8 3.7-4.5 1.3-0.6 5.5-2.1 9.3-3.2 3.8-1.2 9.9-3.8 13.4-5.9 3.5-2 9.8-6.8 13.9-10.7 4.1-3.8 9.3-9.7 11.5-13 2.3-3.3 5.6-9.2 7.5-13.2 1.9-3.9 4.2-7.6 5.1-8.2 0.9-0.6 3.2-1.1 5.1-1.1z"/>
	</g>
</svg>