<svg version="1.2" xmlns="http://www.w3.org/2000/svg" viewBox="0 0 256 256" width="256" height="256">
	<title>Новый проект</title>
	<style>
		.s0 { opacity: 1;fill: #0057b8 } 
		.s1 { opacity: 1;fill: #99c8fe } 
	</style>
	<g id="Background">
		<path id="Path 0" fill-rule="evenodd" class="s0" d="m100 8.1c2.5-0.1 7.4 0.8 11 1.9 3.6 1.1 8.9 3.5 17 9l4.8-3.2c2.6-1.8 6.7-4 9.2-4.9 2.5-1 7.2-2 10.5-2.4 3.8-0.5 8-0.3 11.5 0.5 3 0.7 8 2.5 11 4.1 3 1.5 7.6 4.9 10.2 7.6 2.6 2.6 5.9 7.3 7.4 10.3 1.5 3 3.1 8.4 3.7 12 0.7 4.7 0.7 8.2-0.2 12.5-0.6 3.3-2.3 8.5-3.7 11.5-2 4.5-7.8 10.8-32.2 35.3-23.1 23.1-30.3 29.7-32.2 29.7-1.9 0-9.1-6.6-32.2-29.7-24.4-24.5-30.2-30.8-32.2-35.3-1.4-3-3.1-8.2-3.7-11.5-0.9-4.3-0.9-7.8-0.2-12.5 0.6-3.6 2.2-9 3.7-12 1.5-3 4.8-7.7 7.4-10.3 2.6-2.7 7-6 9.7-7.5 2.8-1.4 7.3-3.1 10-3.8 2.8-0.7 7-1.3 9.5-1.3zm23.5 51.4l-15.5 0.5v8l15.5 0.5 0.5 15.5h8l0.5-15.5 15.5-0.5v-8l-15.5-0.5-0.4-15.5h-8zm-91.3-4.5c2.1 0 5 0.5 6.5 1.1 1.5 0.5 4.1 2.3 5.8 3.9 2.4 2.4 4.8 8 22 57.6l20.3 12c12.2 7.1 21.8 13.4 23.8 15.7 1.9 2 4.6 6.1 8.9 14.2l0.2 24.3c0.3 23.3 0.4 24.2 2.3 24.7 1.9 0.5 2 1.2 1.5 39h-63l-0.3-19.2c-0.2-18.9-0.2-19.3 1.9-20 1.9-0.7 2.1-1.3 1.7-6.3-0.3-3-1.1-6.5-1.7-7.7-0.6-1.3-8-8.4-16.4-15.9-8.4-7.4-16-14.7-16.9-16.2-0.9-1.5-5.9-18.7-11.2-38.2-7.9-29.7-9.4-36.2-8.7-39.5 0.4-2.2 1.6-5.3 2.6-6.9 1.1-1.6 2.7-3.2 3.5-3.7 0.8-0.4 1.6-2.5 1.8-4.6 0.2-2.1 1.2-5.3 2.2-7 1.1-1.8 3.7-4.2 5.7-5.3 2.1-1 5.5-1.9 7.5-2zm-6.4 14.3c0.1 0.7 1.8 1.7 3.9 2.4 2.1 0.7 5.2 2.7 6.9 4.5 2.6 2.6 4.4 7 9.2 21.8 3.3 10.2 6.4 18.6 6.9 18.7 0.4 0.2 1.4-0.1 2.1-0.5 0.9-0.5-0.8-6.5-6.9-24.2-5.7-16.7-8.8-24.2-10.5-25.7-1.3-1.3-3.5-2.3-4.7-2.3-1.3 0-3.4 0.9-4.7 2-1.3 1.2-2.3 2.6-2.2 3.3zm-7.4 15.8c-1 2 0.3 7.9 8 36.4 5 18.7 9.6 34.7 10.1 35.6 0.6 0.9 7.3 7.2 15 14.1 7.7 6.9 15 13.6 16.2 14.9 1.2 1.3 2.6 3.6 3.2 5.2 0.6 1.5 1.1 5.9 1.1 9.7v7h40c-0.5-43.2-0.6-43.6-3.3-49.3-1.6-3.3-4.3-7-6.5-8.7-2-1.6-12.3-7.9-22.7-14-10.5-6.1-19.8-11-20.8-11-0.9 0-2.5 0.4-3.5 0.9-0.9 0.4-2.4 2.3-3.2 4-1.4 3-1.4 3.4 0.6 5.9 1.2 1.5 7.7 5.9 14.5 9.9 6.8 4 12.5 7.8 12.7 8.5 0.2 0.7 0.1 2.3-0.2 3.5-0.5 1.7-1.4 2.3-3.4 2.3-1.6 0-8-3-15.7-7.5-7.2-4.2-13.8-8.6-14.8-9.8-0.9-1.2-2.2-4-2.8-6.2-0.7-2.9-0.7-5.4 0.1-9 1.1-4.8 0.9-5.7-5-24-4.4-13.7-6.8-19.6-8.6-21.3-1.3-1.2-3.4-2.2-4.7-2.2-1.2 0-2.9 0.6-3.7 1.4-0.9 0.7-2 2.4-2.6 3.7zm204.8-30c2.1-0.1 5.6 0.8 7.8 1.9 2.2 1.1 4.9 3.5 5.9 5.3 1.1 1.7 2.1 4.9 2.3 7 0.1 2.1 1 4.2 1.8 4.6 0.8 0.5 2.4 2.1 3.4 3.7 1.1 1.6 2.3 4.7 2.7 6.9 0.6 3.3-0.8 9.8-8.8 39.5-5.2 19.5-10.2 36.7-11.1 38.2-1 1.5-8.6 8.8-17 16.2-8.4 7.5-15.7 14.6-16.4 15.8-0.6 1.3-1.3 4.8-1.6 7.8-0.4 5-0.3 5.6 1.6 6.2 2.1 0.8 2.2 1.2 1.7 39.3h-63l-0.3-19.3c-0.2-18.5-0.1-19.2 1.8-19.7 1.9-0.5 2-1.4 2.5-49l2.7-5.3c1.5-2.8 4.3-6.9 6.2-8.9 2-2.3 11.5-8.5 44.1-27.6l9.5-27.4c7.7-22.3 10-27.9 12.5-30.3 1.6-1.6 4.1-3.3 5.5-3.9 1.4-0.5 4.2-1 6.2-1zm-15.1 36.9c-6.1 17.6-7.8 23.7-6.9 24.2 0.7 0.4 1.7 0.7 2.1 0.5 0.5-0.1 3.6-8.5 6.9-18.7 4.8-14.8 6.6-19.2 9.1-21.8 1.8-1.8 4.9-3.8 7-4.5 2-0.7 3.7-1.8 3.7-2.4 0-0.7-1-2.2-2.3-3.3-1.2-1.1-3.2-2-4.4-2-1.2 0-3.3 1-4.7 2.3-1.8 1.6-4.6 8.5-10.5 25.7zm9.9 11.5c-5.9 18.3-6.1 19.2-5 24 0.8 3.6 0.8 6.1 0 9-0.5 2.2-1.8 5-2.8 6.2-0.9 1.2-7.6 5.6-14.7 9.8-7.7 4.5-14.1 7.5-15.8 7.5-2 0-2.9-0.6-3.3-2.2-0.4-1.3-0.5-2.9-0.3-3.6 0.2-0.7 6-4.5 12.8-8.5 6.8-4 13.3-8.4 14.5-9.9 1.9-2.5 2-2.9 0.6-5.9-0.8-1.7-2.3-3.6-3.3-4-0.9-0.5-2.5-0.9-3.5-0.9-0.9 0-10.3 4.9-20.7 11-10.5 6.1-20.7 12.4-22.8 14-2.1 1.7-4.9 5.4-6.5 8.8-2.7 5.6-2.7 6-3 27.5l-0.2 21.7h40c0-10.8 0.5-15.2 1-16.7 0.6-1.6 2.1-3.9 3.3-5.2 1.2-1.3 8.5-8 16.2-14.9 7.7-6.9 14.4-13.2 14.9-14.1 0.6-0.9 5.1-16.9 10.2-35.6 7.2-27 8.9-34.5 8.2-36.5-0.6-1.4-1.7-3-2.7-3.7-0.9-0.7-2.6-1.3-3.8-1.3-1.2 0-3.3 1-4.7 2.3-1.9 1.6-4.1 7.1-8.6 21.2z"/>
		<path id="Path 1" fill-rule="evenodd" class="s1" d="m100 17.1c6-0.1 8.5 0.4 12.8 2.4 2.8 1.4 7.1 4.3 9.4 6.5 2.4 2.1 5 3.9 5.8 3.9 0.8 0 3.4-1.8 5.7-3.9 2.4-2.2 6.7-5.1 9.5-6.5 4.1-1.9 6.9-2.5 12.3-2.5 4 0 9.2 0.7 12 1.7 3.5 1.2 6.8 3.4 11.1 7.7 4.6 4.6 6.5 7.4 7.9 11.6 1.3 4 1.7 7.5 1.3 13-0.3 5.7-1.1 8.7-3.1 12.5-1.8 3.4-11.6 13.9-56.7 59l-27-27c-21.9-21.9-27.7-28.1-30.1-33-2.4-4.7-3.1-7.4-3.1-12.5-0.1-3.6 0.6-8.7 1.5-11.5 0.9-2.8 3-6.8 4.7-8.9 1.6-2.2 4.7-5.2 6.7-6.7 2.1-1.5 5.6-3.4 7.8-4.3 2.2-0.8 7.4-1.5 11.5-1.5zm23.5 42.4l-15.5 0.5v8l15.5 0.5 0.5 15.5h8l0.5-15.5 15.5-0.5v-8l-15.5-0.5-0.4-15.5h-8zm-55.5 156.5h48v24h-48zm72 0h48v24h-48z"/>
		<path id="Path 2" fill-rule="evenodd" class="s0" d="m127.7 36c6.9 0 9.7 0.4 10.8 1.5 1 1 1.5 3.6 1.5 14.5h6.5c4.4 0 7 0.5 8 1.5 1.1 1.1 1.5 3.8 1.5 10.5 0 6.9-0.4 9.4-1.6 10.5-1 1-3.6 1.5-14.4 1.5v6.5c0 4.6-0.5 6.9-1.6 8-1.1 1.1-3.9 1.5-10.5 1.5-6.6 0-9.3-0.4-10.4-1.5-1-1-1.5-3.6-1.5-14.5h-6.5c-4.4 0-7-0.5-8-1.5-1.1-1.1-1.6-4.1-1.7-10.8-0.1-6.9 0.2-9.6 1.2-10.5 0.8-0.7 4.4-1.2 15-1.2l-0.2-6.8c-0.1-4.8 0.2-7.2 1.2-8 0.9-0.7 4.9-1.2 10.7-1.2zm-4.2 23.5l-15.5 0.5v8l15.5 0.5 0.5 15.5h8l0.5-15.5 15.5-0.5v-8l-15.5-0.5-0.4-15.5h-8z"/>
	</g>
</svg>